<svg width="20" height="20" viewBox="0 0 20 20" fill="none" xmlns="http://www.w3.org/2000/svg">
<g clip-path="url(#clip0_121_3902)">
<path d="M14.2743 4.13925L11.5157 6.89788C11.3934 7.02016 11.2167 7.0708 11.0483 7.03193L3.90652 5.3838C3.738 5.34495 3.56135 5.39562 3.43913 5.51784L2.90779 6.04918C2.67705 6.27992 2.72458 6.66601 3.00437 6.83386L7.81313 9.71915C8.09294 9.88702 8.14046 10.2731 7.90972 10.5038L6.16073 12.2528C6.05842 12.3551 5.91699 12.4083 5.77271 12.3986L3.37873 12.239C2.87079 12.2052 2.64134 12.862 3.05988 13.1517L5.33381 14.726C5.38334 14.7603 5.42637 14.8033 5.46065 14.8528L7.03493 17.1268C7.3246 17.5453 7.98147 17.3159 7.94767 16.8079L7.78803 14.4139C7.77839 14.2697 7.83153 14.1282 7.93384 14.0259L9.68283 12.2769C9.91357 12.0462 10.2996 12.0937 10.4675 12.3735L13.3528 17.1823C13.5207 17.4621 13.9067 17.5096 14.1375 17.2789L14.6688 16.7475C14.791 16.6253 14.8417 16.4486 14.8029 16.2801L13.1547 9.13838C13.1159 8.96991 13.1665 8.79326 13.2888 8.67099L16.0474 5.91236C16.537 5.42273 16.537 4.62887 16.0474 4.13925C15.5578 3.64964 14.7639 3.64962 14.2743 4.13925Z" stroke="white" stroke-width="1.2318" stroke-linecap="round" stroke-linejoin="round"/>
</g>
<defs>
<clipPath id="clip0_121_3902">
<rect width="18.4771" height="18.4771" fill="white" transform="translate(0.870056 0.598633)"/>
</clipPath>
</defs>
</svg>
