<svg width="18" height="19" viewBox="0 0 18 19" fill="none" xmlns="http://www.w3.org/2000/svg">
<g clip-path="url(#clip0_121_4028)">
<path d="M12.7739 4.51123L10.1771 7.10809C10.062 7.22319 9.89567 7.27086 9.73708 7.23427L3.01413 5.68279C2.85549 5.64622 2.6892 5.69391 2.57414 5.80897L2.07396 6.30916C1.85675 6.52637 1.9015 6.88981 2.16488 7.04781L6.69165 9.76391C6.95505 9.92193 6.99979 10.2854 6.78258 10.5026L5.13615 12.149C5.03984 12.2453 4.9067 12.2953 4.77089 12.2863L2.51729 12.136C2.03913 12.1042 1.82314 12.7225 2.21714 12.9952L4.35772 14.4772C4.40435 14.5094 4.44485 14.5499 4.47712 14.5966L5.95908 16.7372C6.23176 17.1311 6.85012 16.9151 6.8183 16.437L6.66802 14.1834C6.65895 14.0476 6.70897 13.9144 6.80528 13.8181L8.45171 12.1717C8.66892 11.9545 9.03234 11.9992 9.19035 12.2626L11.9065 16.7894C12.0645 17.0528 12.4279 17.0975 12.6451 16.8803L13.1453 16.3801C13.2604 16.2651 13.308 16.0988 13.2715 15.9401L11.72 9.2172C11.6834 9.05861 11.7311 8.89232 11.8462 8.77722L14.443 6.18036C14.904 5.71944 14.904 4.97213 14.443 4.51123C13.9821 4.05032 13.2348 4.05031 12.7739 4.51123Z" stroke="#FF8A4C" stroke-width="1.15957" stroke-linecap="round" stroke-linejoin="round"/>
</g>
<defs>
<clipPath id="clip0_121_4028">
<rect width="17.3935" height="17.3935" fill="white" transform="translate(0.438721 0.946411)"/>
</clipPath>
</defs>
</svg>
