<svg width="25" height="24" viewBox="0 0 25 24" fill="none" xmlns="http://www.w3.org/2000/svg">
<path fill-rule="evenodd" clip-rule="evenodd" d="M12.5 10.75C12.9142 10.75 13.25 11.0858 13.25 11.5V16.5C13.25 16.9142 12.9142 17.25 12.5 17.25C12.0858 17.25 11.75 16.9142 11.75 16.5L11.75 11.5C11.75 11.0858 12.0858 10.75 12.5 10.75Z" fill="white"/>
<path fill-rule="evenodd" clip-rule="evenodd" d="M13.0117 6.94132C13.3196 7.21841 13.3446 7.69263 13.0675 8.00051L13.0575 8.01162C12.7804 8.3195 12.3062 8.34446 11.9983 8.06737C11.6904 7.79027 11.6654 7.31606 11.9425 7.00817L11.9525 6.99706C12.2296 6.68918 12.7038 6.66422 13.0117 6.94132Z" fill="white"/>
<path fill-rule="evenodd" clip-rule="evenodd" d="M12.5 2.75C7.39137 2.75 3.25 6.89137 3.25 12C3.25 17.1086 7.39137 21.25 12.5 21.25C17.6086 21.25 21.75 17.1086 21.75 12C21.75 6.89137 17.6086 2.75 12.5 2.75ZM1.75 12C1.75 6.06294 6.56294 1.25 12.5 1.25C18.4371 1.25 23.25 6.06294 23.25 12C23.25 17.9371 18.4371 22.75 12.5 22.75C6.56294 22.75 1.75 17.9371 1.75 12Z" fill="white"/>
</svg>
