<svg width="18" height="18" viewBox="0 0 18 18" fill="none" xmlns="http://www.w3.org/2000/svg">
<g clip-path="url(#clip0_154_610)">
<path d="M15.6876 7.59104C15.6876 12.5494 9.31256 16.7994 9.31256 16.7994C9.31256 16.7994 2.93756 12.5494 2.93756 7.59104C2.93756 5.90028 3.60921 4.27877 4.80476 3.08323C6.0003 1.88768 7.62181 1.21603 9.31256 1.21603C11.0033 1.21603 12.6248 1.88768 13.8204 3.08323C15.0159 4.27877 15.6876 5.90028 15.6876 7.59104Z" stroke="white" stroke-width="1.5" stroke-linecap="round" stroke-linejoin="round"/>
<path d="M9.31256 9.71603C10.4862 9.71603 11.4376 8.76464 11.4376 7.59103C11.4376 6.41743 10.4862 5.46603 9.31256 5.46603C8.13896 5.46603 7.18756 6.41743 7.18756 7.59103C7.18756 8.76464 8.13896 9.71603 9.31256 9.71603Z" stroke="white" stroke-width="1.5" stroke-linecap="round" stroke-linejoin="round"/>
</g>
<defs>
<clipPath id="clip0_154_610">
<rect width="17" height="17" fill="white" transform="translate(0.812561 0.50769)"/>
</clipPath>
</defs>
</svg>
