<svg width="17" height="17" viewBox="0 0 17 17" fill="none" xmlns="http://www.w3.org/2000/svg">
<rect x="1.25625" y="1.07626" width="15.1339" height="15.1339" rx="7.56693" stroke="#FF8A4C" stroke-width="1.10736"/>
<path d="M11.5516 5.86072L5.52271 11.8897" stroke="#FF8A4C" stroke-width="1.10736" stroke-linecap="round" stroke-linejoin="round"/>
<path d="M6.16961 7.58276C6.7642 7.58276 7.24621 7.10075 7.24621 6.50616C7.24621 5.91157 6.7642 5.42957 6.16961 5.42957C5.57503 5.42957 5.09302 5.91157 5.09302 6.50616C5.09302 7.10075 5.57503 7.58276 6.16961 7.58276Z" stroke="#FF8A4C" stroke-width="1.10736" stroke-linecap="round" stroke-linejoin="round"/>
<path d="M10.9118 12.3201C11.5064 12.3201 11.9884 11.8381 11.9884 11.2435C11.9884 10.6489 11.5064 10.1669 10.9118 10.1669C10.3172 10.1669 9.83521 10.6489 9.83521 11.2435C9.83521 11.8381 10.3172 12.3201 10.9118 12.3201Z" stroke="#FF8A4C" stroke-width="1.10736" stroke-linecap="round" stroke-linejoin="round"/>
</svg>
