<svg width="22" height="23" viewBox="0 0 22 23" fill="none" xmlns="http://www.w3.org/2000/svg">
<path d="M4.4 16.2428L3.85275 13.1784C3.77552 12.7466 3.85569 12.3013 4.07872 11.9236C4.30175 11.5458 4.65284 11.2605 5.06825 11.1196L5.225 11.0664M5.225 11.0664L10.4115 9.30639C10.7932 9.17703 11.2068 9.17703 11.5885 9.30639L16.775 11.0664M5.225 11.0664V7.58306C5.225 7.09683 5.41815 6.63051 5.76197 6.2867C6.10579 5.94288 6.5721 5.74973 7.05833 5.74973H9.35M16.775 11.0664L16.9318 11.1196C17.3472 11.2605 17.6983 11.5458 17.9213 11.9236C18.1443 12.3013 18.2245 12.7466 18.1473 13.1784L17.6 16.2419M16.775 11.0664V7.58306C16.775 7.09683 16.5818 6.63051 16.238 6.2867C15.8942 5.94288 15.4279 5.74973 14.9417 5.74973H12.65M9.35 5.74973H12.65M9.35 5.74973V4.88164C9.35 4.44404 9.52384 4.02435 9.83327 3.71492C10.1427 3.40548 10.5624 3.23164 11 3.23164C11.4376 3.23164 11.8573 3.40548 12.1667 3.71492C12.4762 4.02435 12.65 4.44404 12.65 4.88164V5.74973M2.75 19.1807C3.34308 19.783 4.78683 19.9535 6.16458 19.3787C7.11058 18.9846 8.30592 18.9745 9.273 19.3136C10.3926 19.696 11.6074 19.696 12.727 19.3136C13.6941 18.9745 14.8894 18.9836 15.8345 19.3778C17.2132 19.9535 18.6578 19.783 19.25 19.1798" stroke="#333333" stroke-width="1.25" stroke-linecap="round" stroke-linejoin="round"/>
</svg>
