<svg width="20" height="21" viewBox="0 0 20 21" fill="none" xmlns="http://www.w3.org/2000/svg">
<path d="M4.31133 14.7423L3.82458 12.0167C3.75589 11.6326 3.8272 11.2366 4.02557 10.9006C4.22394 10.5646 4.53621 10.3109 4.9057 10.1855L5.04512 10.1382M5.04512 10.1382L9.65822 8.57276C9.99769 8.4577 10.3656 8.4577 10.7051 8.57276L15.3182 10.1382M5.04512 10.1382V7.03995C5.04512 6.60748 5.21692 6.19272 5.52273 5.88691C5.82853 5.58111 6.24329 5.40931 6.67577 5.40931H8.71407M15.3182 10.1382L15.4576 10.1855C15.8271 10.3109 16.1394 10.5646 16.3377 10.9006C16.5361 11.2366 16.6074 11.6326 16.5387 12.0167L16.052 14.7415M15.3182 10.1382V7.03995C15.3182 6.60748 15.1464 6.19272 14.8406 5.88691C14.5348 5.58111 14.12 5.40931 13.6875 5.40931H11.6492M8.71407 5.40931H11.6492M8.71407 5.40931V4.6372C8.71407 4.24797 8.86869 3.87469 9.14392 3.59946C9.41914 3.32424 9.79243 3.16962 10.1817 3.16962C10.5709 3.16962 10.9442 3.32424 11.2194 3.59946C11.4946 3.87469 11.6492 4.24797 11.6492 4.6372V5.40931M2.84375 17.3554C3.37126 17.8911 4.6554 18.0427 5.88083 17.5315C6.72224 17.1809 7.78542 17.172 8.64559 17.4736C9.6414 17.8137 10.7219 17.8137 11.7177 17.4736C12.5779 17.172 13.6411 17.1801 14.4817 17.5307C15.7079 18.0427 16.9929 17.8911 17.5196 17.3546" stroke="white" stroke-width="1.35887" stroke-linecap="round" stroke-linejoin="round"/>
</svg>
